<?xml version="1.0" standalone="no"?>
<!DOCTYPE svg PUBLIC "-//W3C//DTD SVG 20010904//EN"
 "http://www.w3.org/TR/2001/REC-SVG-20010904/DTD/svg10.dtd">
<svg version="1.0" xmlns="http://www.w3.org/2000/svg"
 width="554.000000pt" height="512.000000pt" viewBox="0 0 554.000000 512.000000"
 preserveAspectRatio="xMidYMid meet">

<g transform="translate(0.000000,512.000000) scale(0.100000,-0.100000)"
fill="#000000" stroke="none">
<path d="M2813 4410 c6 -16 13 -27 15 -25 7 7 -8 55 -17 55 -5 0 -4 -13 2 -30z"/>
<path d="M3115 4243 c9 -21 23 -54 30 -73 27 -73 49 -111 63 -105 41 15 125
-332 147 -610 9 -125 12 -133 40 -127 30 5 30 1 5 191 -61 454 -144 672 -288
755 -9 6 -8 -3 3 -31z"/>
<path d="M2417 3814 c-25 -107 -57 -308 -64 -407 l-6 -89 24 4 c24 3 24 6 41
173 9 94 21 202 27 240 5 39 7 88 2 110 l-7 40 -17 -71z"/>
<path d="M2038 3475 c-3 -4 -4 -70 -1 -148 9 -242 -5 -297 -217 -877 -15 -41
-48 -131 -73 -200 -62 -172 -169 -452 -192 -505 -72 -163 -134 -390 -159 -590
-10 -71 -21 -163 -27 -203 -5 -40 -9 -96 -9 -125 -1 -57 -10 -67 -110 -119
-25 -13 -46 -26 -48 -30 -10 -22 -21 -1 -27 50 -12 110 -20 92 -20 -45 l0
-138 -25 0 -25 0 0 290 c0 508 -5 746 -14 741 -5 -4 -11 -1 -13 5 -2 6 -20 13
-41 16 -37 5 -37 4 -37 -32 0 -20 -4 -34 -9 -30 -6 3 -10 -134 -10 -362 l0
-368 -28 -3 -28 -3 1 333 c1 183 -2 297 -6 253 -3 -44 -7 -68 -8 -53 -2 29 -3
29 -84 14 -14 -3 -17 10 -20 93 -2 53 -1 100 4 105 4 6 7 87 6 180 l-2 171 -3
-143 c-3 -131 -5 -142 -20 -127 -17 17 -72 12 -85 -9 -4 -6 -9 23 -11 64 -1
41 -4 -140 -5 -402 l-2 -478 -25 0 -25 0 -2 162 -3 163 -60 0 -60 0 0 -161 c0
-101 -4 -166 -11 -175 -7 -9 -10 -60 -9 -137 3 -137 -5 -153 -50 -111 -18 18
-25 35 -25 65 0 51 -10 60 -60 56 -31 -3 -40 -8 -38 -21 3 -13 -5 -15 -41 -13
-24 1 -49 -2 -56 -8 -19 -15 -76 -1 -73 19 2 9 8 20 13 24 6 4 -3 6 -20 5 -29
-3 -30 -5 -32 -58 -2 -30 -5 -74 -9 -97 -5 -40 -8 -43 -35 -43 -25 0 -29 -4
-29 -26 0 -18 6 -28 21 -31 12 -4 18 -11 15 -20 -3 -8 -6 -23 -6 -34 0 -12 -7
-19 -20 -19 -16 0 -20 -7 -22 -32 0 -18 -3 -44 -5 -58 -6 -37 -7 -87 -5 -157
l2 -63 31 0 c28 0 31 3 27 25 -5 24 -3 25 48 25 50 0 53 -1 57 -28 l4 -27 2
28 c1 24 5 27 35 27 44 0 66 -9 66 -26 0 -8 5 -14 11 -14 5 0 7 -4 4 -10 -4
-6 5 -10 19 -10 14 0 27 6 27 13 3 32 5 37 12 37 36 0 36 0 27 -24 l-9 -25
101 1 c55 0 96 3 92 7 -5 3 -10 14 -10 24 -2 14 7 17 47 17 46 0 49 -2 49 -25
0 -14 4 -25 9 -25 5 0 8 11 5 24 -6 33 7 39 70 31 41 -5 53 -11 49 -21 -3 -8
1 -15 8 -15 8 -1 1 -5 -16 -9 -29 -7 -28 -8 11 -9 38 -1 41 1 40 24 0 14 2 25
7 25 42 1 46 -1 41 -15 -4 -9 0 -15 7 -16 8 -1 3 -5 -11 -9 -18 -6 -7 -8 43
-9 l67 -1 0 96 0 95 43 -3 42 -3 0 -93 c0 -63 4 -92 12 -92 6 0 13 5 15 11 2
6 25 13 51 16 38 5 47 3 47 -10 0 -9 -10 -18 -22 -20 -13 -3 -4 -3 19 -1 24 2
55 6 70 9 24 5 25 4 8 -5 -15 -7 -8 -9 30 -5 28 2 466 7 975 10 509 2 948 7
975 10 134 14 136 15 124 36 -14 28 6 52 38 45 17 -5 30 2 53 26 26 27 40 32
98 38 60 6 66 10 23 14 -25 2 -23 24 3 42 15 9 46 18 70 19 24 2 54 9 66 15
12 6 24 9 27 7 2 -3 20 1 38 9 66 27 65 28 65 -121 0 -111 3 -135 14 -135 8 0
18 5 21 10 3 6 28 10 55 10 36 0 52 -5 59 -17 9 -17 10 -17 16 0 8 19 56 24
52 4 -1 -8 13 -13 41 -15 l42 -3 0 155 c0 155 0 156 -22 156 -13 0 -41 2 -63
5 l-40 5 30 -14 30 -15 -52 -1 c-43 0 -53 -3 -58 -20 -8 -24 -49 -27 -71 -5
-12 12 -12 15 -2 16 7 0 4 4 -7 9 -19 8 -19 9 0 9 15 1 16 4 7 13 -20 20 -14
28 22 28 19 0 41 6 48 13 7 7 21 16 31 20 9 3 17 16 17 27 0 11 7 20 15 20 8
0 15 7 15 15 0 8 7 15 15 15 8 0 15 -9 15 -20 0 -11 5 -20 10 -20 18 0 10 -17
-12 -28 l-23 -11 22 0 c12 -1 25 3 28 9 3 5 15 10 26 10 11 0 19 7 19 18 0 9
14 25 30 34 17 9 30 24 30 33 0 9 6 15 13 12 14 -4 14 -5 17 -284 2 -192 3
-203 21 -203 10 0 19 7 19 15 0 12 18 15 103 15 67 0 97 -4 87 -10 -12 -8 -12
-10 2 -15 9 -4 29 -5 44 -3 l29 3 -4 82 c-3 85 12 143 36 143 7 0 13 8 13 18
0 13 -2 14 -9 4 -6 -10 -10 -10 -21 3 -10 12 -11 54 -5 196 4 114 3 179 -3
175 -5 -3 -12 -24 -15 -46 -7 -52 -22 -70 -61 -70 -21 0 -27 -3 -17 -9 19 -12
-4 -24 -34 -17 -31 8 -55 -2 -48 -20 4 -11 -4 -14 -35 -14 -22 0 -49 3 -59 7
-16 6 -15 8 7 14 24 7 24 7 3 8 -27 1 -30 17 -5 25 9 3 -2 4 -25 3 -35 -2 -43
1 -43 15 0 10 6 18 14 18 8 0 19 14 25 30 6 18 22 36 38 43 17 7 27 18 25 28
-3 18 36 39 73 39 14 0 25 5 25 11 0 14 67 79 81 79 5 0 9 16 9 35 0 19 5 35
10 35 6 0 10 18 10 39 0 22 4 42 9 45 5 3 5 25 0 48 -5 26 -4 56 2 75 7 22 7
38 -1 53 -6 11 -8 30 -5 41 4 11 2 25 -3 32 -14 16 -28 165 -15 152 14 -13 33
-72 34 -104 1 -14 5 -3 9 24 8 58 4 757 -6 856 l-6 65 -41 -3 c-22 -2 -44 -9
-48 -15 -4 -7 -9 1 -12 18 -2 16 -5 -114 -6 -288 0 -175 -5 -318 -10 -318 -10
0 -45 88 -45 115 1 11 3 166 6 345 3 179 2 271 -2 205 -3 -66 -7 -101 -8 -77
l-2 42 -45 0 c-36 0 -45 -4 -46 -17 -3 -36 -18 74 -18 135 l-1 62 62 0 c80 0
72 8 -12 11 l-65 3 -6 -40 c-5 -29 -7 -32 -8 -11 -1 21 -6 27 -26 28 -14 1
-31 2 -37 3 -9 1 -14 -24 -18 -84 l-5 -85 -27 52 c-16 29 -28 61 -28 71 0 10
-4 22 -9 27 -25 28 -112 345 -131 480 -24 172 -40 323 -41 385 0 46 -3 59 -9
45 -6 -13 -9 -15 -9 -5 -1 15 -59 70 -75 70 -5 0 -18 10 -30 23 -12 13 -27 22
-33 20 -7 -3 -14 14 -18 41 -5 30 -13 47 -24 51 -33 10 -123 -15 -181 -50 -32
-19 -63 -35 -70 -35 -9 0 -10 -16 -6 -57 3 -32 7 -112 9 -178 2 -102 -1 -125
-16 -148 -36 -55 -98 -55 -134 0 -15 22 -19 53 -21 180 -2 84 -8 151 -12 148
-5 -3 -76 28 -160 68 -83 41 -153 70 -156 66 -3 -5 -4 -152 -2 -326 3 -294 2
-322 -17 -375 -20 -60 -34 -74 -36 -35 -3 55 -18 -67 -18 -149 -1 -131 -11
-214 -27 -214 -12 0 -14 24 -2 36 4 3 2 12 -5 19 -11 12 -22 10 -67 -17 -8 -5
-23 -11 -32 -14 -10 -4 -18 -11 -18 -16 0 -5 -5 -6 -12 -2 -7 5 -8 3 -4 -5 5
-8 22 -11 50 -7 40 5 40 5 -9 -9 -27 -8 -61 -13 -75 -10 -14 2 -19 2 -11 -2 9
-3 -8 -13 -40 -23 -30 -10 -63 -21 -74 -24 -11 -4 -2 3 20 15 22 13 44 22 48
21 5 -1 5 2 2 8 -4 6 -13 9 -20 6 -7 -2 -16 3 -20 12 -3 9 -3 14 0 10 4 -3 15
1 24 10 10 10 26 23 37 30 10 6 -8 -1 -41 -17 -80 -38 -169 -65 -189 -58 -28
11 -17 36 27 58 125 63 212 167 265 319 31 91 58 217 48 227 -3 4 -6 -5 -6
-18 0 -13 -5 -31 -10 -39 -8 -12 -10 -10 -11 10 -1 14 -1 31 0 38 1 6 -3 12
-8 12 -7 0 -9 42 -7 118 2 64 0 151 -3 192 l-6 75 -75 1 c-102 0 -105 1 -91
18 10 12 6 12 -26 0 -21 -7 -48 -13 -59 -14 -29 0 -34 -22 -34 -172 0 -126 0
-128 -28 -160 -39 -42 -85 -43 -120 -2 l-25 28 6 193 c3 120 2 191 -4 187 -5
-3 -33 8 -62 24 -29 16 -72 33 -97 36 -25 4 -52 9 -61 12 -8 2 -18 2 -21 -1z
m-1 -987 c-3 -8 -6 -5 -6 6 -1 11 2 17 5 13 3 -3 4 -12 1 -19z m1293 -34 c-6
-14 -7 -30 -4 -36 5 -7 2 -8 -6 -3 -10 6 -12 4 -7 -8 8 -21 -2 -49 -14 -42
-10 7 -24 -42 -20 -68 1 -9 -4 -20 -12 -23 -10 -3 -14 -17 -13 -37 2 -18 0
-41 -4 -52 -6 -17 6 -27 94 -70 55 -28 169 -90 253 -138 83 -48 156 -87 162
-87 21 0 10 -21 -51 -98 -92 -115 -80 -113 -162 -33 -39 37 -99 86 -133 108
-81 53 -246 125 -267 117 -17 -6 -21 -26 -8 -38 12 -13 8 -30 -10 -44 -10 -7
-16 -18 -12 -23 3 -5 0 -8 -8 -7 -8 2 -12 -5 -11 -19 2 -13 -2 -23 -7 -23 -6
0 -10 -8 -10 -17 0 -10 -7 -27 -15 -37 -8 -11 -15 -30 -15 -42 0 -12 -13 -32
-29 -45 l-29 -23 109 -58 c261 -137 426 -291 444 -412 12 -75 -17 -150 -80
-212 -30 -28 -78 -63 -107 -78 -73 -35 -225 -78 -273 -78 -34 1 -36 -1 -15 -8
31 -10 -118 -2 -214 11 -81 11 -184 52 -286 114 -41 24 -78 41 -84 38 -5 -3
-6 -2 -3 4 3 5 -7 17 -22 26 -27 16 -29 16 -46 -3 -17 -19 -17 -20 -1 -20 9 0
14 -4 11 -10 -3 -6 -3 -10 2 -10 4 0 19 -10 33 -21 23 -19 21 -19 -15 2 -50
28 -227 156 -280 202 l-40 34 100 117 c55 65 110 129 122 143 l21 26 79 -83
c43 -46 79 -86 79 -89 7 -30 18 -50 25 -45 5 3 9 -2 9 -11 0 -9 4 -14 8 -11 5
3 8 -5 8 -17 -1 -12 4 -21 10 -20 6 1 11 -4 11 -12 0 -10 -8 -8 -30 7 -17 12
-27 17 -24 11 14 -23 158 -106 234 -135 133 -52 324 -49 404 5 18 12 46 39 62
59 74 92 5 213 -168 298 -44 22 -92 42 -106 45 -25 6 -26 4 -32 -48 -8 -62
-23 -97 -58 -127 -13 -12 -18 -19 -11 -15 6 3 12 1 12 -4 0 -6 -4 -11 -10 -11
-5 0 -10 -5 -10 -11 0 -5 4 -8 9 -5 4 3 6 -6 3 -19 -2 -14 -9 -25 -14 -25 -6
0 -8 -7 -4 -15 4 -10 -1 -15 -14 -15 -11 0 -20 -5 -20 -12 0 -6 -3 -8 -7 -5
-3 4 -12 2 -20 -4 -9 -8 -13 -8 -13 -1 0 6 -7 9 -14 6 -8 -3 -28 1 -43 9 -15
8 -46 22 -68 33 -22 10 -42 21 -45 24 -3 4 -22 19 -43 34 -21 16 -35 31 -32
34 3 3 15 -4 28 -15 30 -27 118 -86 122 -81 3 4 95 248 95 254 0 2 -8 4 -18 4
-9 0 -63 23 -120 50 -119 59 -221 147 -267 232 -25 45 -30 67 -33 144 -4 77
-1 98 18 142 45 104 181 200 347 243 99 26 284 28 393 4 41 -9 81 -17 88 -18
12 -2 35 48 103 221 7 19 12 21 29 12 16 -9 18 -15 10 -36z m-1356 -241 c-71
-300 -116 -458 -198 -703 -83 -245 -102 -325 -116 -475 -11 -112 -6 -238 14
-375 3 -19 -1 -10 -9 20 -67 260 -36 604 84 937 22 60 66 183 100 274 55 152
170 531 172 568 0 10 3 11 5 4 3 -7 -20 -119 -52 -250z m1796 135 c50 -205
113 -426 193 -673 47 -143 96 -312 111 -375 27 -123 47 -304 44 -410 -1 -50
-2 -55 -5 -20 -7 89 -34 266 -53 340 -11 41 -45 147 -76 235 -70 199 -120 394
-209 825 -14 69 -28 135 -32 148 -3 12 -3 22 0 22 3 0 15 -42 27 -92z m-214
21 c10 -16 -23 -46 -36 -33 -6 6 -8 18 -4 27 7 19 29 22 40 6z m-1006 -84 c0
-2 -10 -9 -22 -15 -22 -11 -22 -10 -4 4 21 17 26 19 26 11z m963 -42 c8 -14
-12 -53 -28 -53 -21 0 -30 27 -15 45 13 16 36 20 43 8z m691 -119 c3 -8 2 -12
-4 -9 -6 3 -10 10 -10 16 0 14 7 11 14 -7z m-916 -320 c-5 -27 -48 -32 -48 -5
0 22 30 44 43 31 5 -4 7 -16 5 -26z m-45 -100 c9 -9 -15 -54 -29 -54 -20 0
-26 18 -14 40 10 19 31 26 43 14z m-178 -309 c0 -23 -34 -33 -45 -14 -13 20 1
40 24 37 13 -2 21 -10 21 -23z m-49 -156 c-9 -18 -16 -44 -16 -59 0 -24 -3
-27 -25 -22 -14 2 -25 9 -25 14 0 18 21 48 34 48 8 0 19 14 26 30 7 17 15 29
17 26 3 -3 -2 -19 -11 -37z m111 -41 c-3 -8 -6 -5 -6 6 -1 11 2 17 5 13 3 -3
4 -12 1 -19z m-27 -53 c-6 -8 -9 -19 -5 -25 3 -6 -3 -10 -16 -10 -19 0 -20 -2
-8 -17 8 -9 9 -14 2 -10 -6 4 -13 2 -15 -4 -3 -8 -15 -9 -38 -4 l-35 8 40 17
c22 10 49 27 59 39 21 23 35 29 16 6z m-2470 -39 c0 -7 -20 -10 -55 -8 -71 5
-71 19 0 19 33 0 55 -5 55 -11z m2007 -264 c6 -4 10 -19 10 -34 -1 -14 -6 -24
-11 -20 -5 3 -6 -2 -3 -12 4 -9 3 -15 -2 -12 -5 3 -17 -16 -27 -42 -26 -64
-28 -72 -9 -39 21 37 29 35 10 -3 -9 -16 -20 -30 -25 -30 -5 0 -12 -9 -15 -20
-7 -22 -13 -24 -32 -12 -10 6 -3 33 27 111 52 133 50 130 77 113z m-1987 -77
c0 -23 -3 -25 -49 -25 -46 0 -48 1 -43 25 4 22 9 25 48 25 40 0 44 -2 44 -25z
m142 8 c30 -27 21 -33 -52 -33 -68 0 -70 1 -70 25 0 23 3 25 52 25 34 0 58 -6
70 -17z m73 7 c3 -5 14 -10 25 -10 10 0 20 -7 24 -15 4 -12 -3 -15 -34 -15
-36 0 -40 3 -40 25 0 25 14 33 25 15z m2175 -15 c0 -7 -30 -13 -34 -7 -3 4 4
9 15 9 10 1 19 0 19 -2z m58 -2 c-10 -2 -26 -2 -35 0 -10 3 -2 5 17 5 19 0 27
-2 18 -5z m-243 -62 c-3 -12 -15 -21 -26 -21 -23 0 -25 17 -2 42 20 22 38 9
28 -21z m-2205 -1 c0 -17 -7 -20 -44 -20 -35 0 -45 4 -49 20 -5 18 0 20 44 20
42 0 49 -3 49 -20z m156 0 c0 -18 -7 -20 -68 -20 -61 0 -68 2 -68 20 0 18 7
20 68 20 61 0 68 -2 68 -20z m104 0 c0 -17 -7 -20 -39 -20 -34 0 -38 3 -34 20
4 15 14 20 39 20 27 0 34 -4 34 -20z m-260 -65 c0 -23 -4 -25 -45 -25 -41 0
-45 2 -45 25 0 23 4 25 45 25 41 0 45 -2 45 -25z m160 6 c0 -21 -20 -28 -92
-30 -45 -2 -48 0 -48 24 0 24 2 25 70 25 62 0 70 -2 70 -19z m100 -7 c0 -23
-3 -25 -37 -22 -30 2 -37 7 -38 26 -1 19 3 22 37 22 34 0 38 -3 38 -26z m1705
-39 c18 -13 17 -13 -12 -3 -18 7 -33 18 -33 26 0 9 3 10 13 2 6 -6 21 -17 32
-25z m215 -10 c0 -2 -4 -15 -10 -30 -9 -22 -12 -24 -30 -13 -36 23 -16 77 22
57 10 -5 18 -12 18 -14z m-2590 5 c13 -8 13 -10 -2 -10 -9 0 -20 -5 -24 -11
-5 -9 7 -10 44 -7 28 3 57 1 64 -3 8 -5 -12 -9 -49 -9 -35 0 -63 -4 -63 -10 0
-5 8 -10 18 -11 11 -1 9 -4 -8 -9 -25 -8 -25 -8 -2 -9 13 -1 20 -5 17 -11 -4
-6 7 -10 24 -10 21 0 31 5 31 15 0 8 -6 15 -12 15 -10 0 -9 3 1 9 7 5 22 6 33
3 13 -3 16 -7 8 -12 -6 -4 -11 -10 -11 -14 3 -23 -6 -26 -82 -26 -93 0 -114 9
-65 26 l33 12 -30 2 c-29 2 -30 2 -5 10 l25 7 -25 11 c-26 10 -21 15 25 25 12
3 7 5 -13 6 -19 1 -31 5 -27 11 8 13 75 13 95 0z m90 -6 c0 -2 -12 -4 -26 -4
-14 0 -23 4 -20 9 6 8 46 4 46 -5z m320 -9 c0 -23 -3 -25 -50 -25 -47 0 -50 2
-50 25 0 23 3 25 50 25 47 0 50 -2 50 -25z m138 19 c25 -7 29 -29 6 -38 -9 -3
-40 -6 -70 -6 -51 0 -54 1 -54 25 0 23 3 25 48 25 26 0 57 -3 70 -6z m122 -24
c0 -17 -7 -20 -40 -20 -33 0 -40 3 -40 20 0 17 7 20 40 20 33 0 40 -3 40 -20z
m1805 -28 c-3 -3 -11 0 -18 7 -9 10 -8 11 6 5 10 -3 15 -9 12 -12z m-2065 -37
c0 -23 -3 -25 -50 -25 -47 0 -50 2 -50 25 0 23 3 25 50 25 47 0 50 -2 50 -25z
m160 12 c0 -26 -25 -37 -82 -37 -55 0 -58 1 -58 25 0 24 2 25 70 25 51 0 70
-4 70 -13z m98 -4 c-3 -18 -27 -30 -60 -32 -13 -1 -18 6 -18 24 0 23 4 25 40
25 33 0 40 -3 38 -17z m1878 1 c18 -14 18 -14 -6 -3 -31 14 -36 19 -24 19 6 0
19 -7 30 -16z m-1613 0 c13 -13 -7 -34 -32 -34 -20 0 -27 5 -28 20 -1 16 4 20
26 20 15 0 30 -3 34 -6z m3297 -34 c0 -5 -11 -10 -25 -10 -14 0 -25 5 -25 10
0 6 11 10 25 10 14 0 25 -4 25 -10z m-4272 -37 c-3 -30 -23 -39 -62 -29 -19 5
-22 11 -18 31 4 22 10 25 44 25 37 0 39 -2 36 -27z m100 18 c6 0 12 -10 12
-21 0 -17 -7 -20 -50 -20 -50 0 -55 4 -44 34 4 11 16 14 37 12 18 -2 38 -4 45
-5z m352 -21 c0 -29 -1 -30 -50 -30 -50 0 -51 1 -46 28 2 15 5 28 5 30 1 1 21
2 46 2 43 0 45 -1 45 -30z m125 21 c22 -5 34 -9 26 -10 -10 -1 -11 -4 -2 -15
9 -11 4 -15 -26 -20 -21 -3 -53 -6 -70 -6 -30 0 -33 3 -33 30 0 27 3 30 33 29
17 0 50 -4 72 -8z m392 3 c-3 -3 -12 -4 -19 -1 -8 3 -5 6 6 6 11 1 17 -2 13
-5z m-263 -15 c-3 -6 0 -15 7 -20 9 -6 -3 -9 -33 -9 -41 0 -48 3 -48 20 0 17
7 20 41 20 27 0 38 -4 33 -11z m3476 1 c18 -6 8 -8 -40 -9 -45 0 -60 2 -50 9
18 11 55 11 90 0z m-3206 -15 c4 -12 -3 -15 -37 -14 -23 0 -36 3 -29 6 6 2 10
9 6 14 -3 5 8 9 24 9 17 0 32 -6 36 -15z m3299 8 c-13 -2 -33 -2 -45 0 -13 2
-3 4 22 4 25 0 35 -2 23 -4z m-92 -20 c-19 -4 -21 -7 -10 -14 12 -8 12 -10 -1
-19 -12 -8 -12 -10 5 -10 17 0 17 -2 5 -10 -13 -9 -13 -10 0 -10 13 0 13 -1 0
-10 -13 -9 -13 -10 0 -11 8 0 4 -5 -10 -9 l-25 -8 25 -2 25 -2 -25 -8 c-20 -6
-15 -8 25 -9 36 0 46 2 35 9 -12 7 -8 10 15 10 21 0 26 -3 16 -9 -11 -7 -9
-10 10 -14 13 -2 -25 -4 -86 -4 -70 -1 -99 2 -80 7 28 7 29 8 5 10 l-25 2 25
8 25 8 -25 1 c-20 1 -22 3 -10 11 13 9 13 10 0 10 -13 0 -13 1 0 10 13 9 13
10 0 11 -10 0 -8 3 5 9 l20 9 -20 1 c-19 1 -19 1 -2 15 18 13 17 14 -5 18 -13
2 6 4 42 4 36 0 54 -2 41 -4z m87 0 c-10 -2 -15 -10 -11 -19 3 -9 -2 -14 -16
-14 -22 0 -30 19 -8 21 6 0 3 4 -8 9 -15 7 -11 8 20 8 22 0 32 -2 23 -5z
m-3297 -25 c1 -7 2 -25 3 -40 2 -22 -1 -28 -18 -29 -19 -1 -18 -2 4 -9 21 -7
22 -8 5 -10 -17 -2 -16 -3 5 -10 20 -6 16 -8 -23 -9 -45 -1 -47 0 -32 15 13
14 14 19 3 25 -9 6 -3 9 17 10 29 1 29 2 5 8 -23 5 -28 15 -20 39 1 4 2 10 1
15 0 4 10 7 24 7 14 0 25 -6 26 -12z m-970 -20 l2 -23 4 23 c4 19 10 22 57 22
51 0 53 -1 48 -25 -4 -25 -6 -25 -102 -25 l-97 0 5 25 c4 22 10 25 43 25 33 0
39 -3 40 -22z m451 -3 c5 -24 3 -25 -47 -25 -50 0 -52 1 -47 25 4 22 9 25 47
25 38 0 43 -3 47 -25z m136 19 c13 -4 22 -14 22 -25 0 -17 -8 -19 -70 -19 -68
0 -70 1 -70 25 0 23 3 25 48 25 26 0 57 -3 70 -6z m118 -21 c2 -20 -3 -23 -37
-23 -35 0 -39 2 -37 25 2 21 7 24 38 22 29 -2 35 -6 36 -24z m3549 -3 c-11 -5
-14 -9 -7 -9 21 -1 13 -31 -8 -31 -15 0 -19 6 -18 25 2 20 8 25 28 24 23 0 23
-1 5 -9z m-4265 -60 c0 -17 -7 -20 -50 -20 -43 0 -50 3 -50 20 0 17 7 20 50
20 43 0 50 -3 50 -20z m127 0 c-1 -17 -8 -20 -58 -20 -57 0 -60 3 -50 38 1 1
25 2 55 2 49 0 55 -2 53 -20z m83 7 c0 -7 -9 -13 -20 -14 -11 -1 -20 4 -20 13
0 8 9 14 20 14 11 0 20 -6 20 -13z m250 9 c0 -2 3 -11 6 -20 5 -13 -3 -16 -50
-16 -49 0 -56 2 -56 20 0 17 7 20 50 20 28 0 50 -2 50 -4z m158 -13 c-3 -15
-16 -19 -71 -21 -62 -3 -67 -1 -67 18 0 18 6 20 71 20 62 0 70 -2 67 -17z
m102 3 c0 -7 -10 -16 -22 -20 -42 -11 -58 -7 -58 14 0 17 7 20 40 20 27 0 40
-4 40 -14z m3153 -23 c-7 -2 -19 -2 -25 0 -7 3 -2 5 12 5 14 0 19 -2 13 -5z
m-2893 -23 c-12 -8 -12 -10 5 -11 13 0 15 -3 6 -6 -9 -4 -10 -7 -2 -13 22 -13
0 -40 -33 -40 -24 0 -27 3 -16 10 13 8 12 10 -2 10 -22 0 -23 14 -3 34 13 13
13 15 -3 19 -9 3 1 5 23 6 29 0 36 -2 25 -9z m2893 3 c-7 -2 -19 -2 -25 0 -7
3 -2 5 12 5 14 0 19 -2 13 -5z m312 -3 l-20 -9 20 0 c15 -1 17 -3 6 -10 -10
-6 -10 -10 -1 -16 9 -6 9 -10 -1 -16 -12 -7 -11 -9 1 -10 10 0 8 -3 -5 -9 -17
-7 -17 -9 -2 -9 25 -1 21 -21 -5 -21 -19 0 -20 -2 -8 -10 13 -9 13 -10 0 -11
-8 -1 1 -5 20 -9 28 -6 20 -7 -35 -8 -52 0 -62 2 -40 8 20 5 24 8 10 9 -16 1
-17 3 -6 10 11 7 10 10 -5 13 -17 4 -16 6 6 16 l25 11 -25 1 c-23 1 -23 2 -5
9 19 8 18 9 -5 13 l-25 5 24 8 c23 8 24 9 5 16 -17 7 -16 8 6 9 23 1 23 2 5
10 -15 6 -7 9 30 9 37 0 45 -3 30 -9z m68 3 c-7 -2 -19 -2 -25 0 -7 3 -2 5 12
5 14 0 19 -2 13 -5z m-4255 -25 c-2 -19 -10 -23 -43 -26 -47 -3 -68 8 -59 31
5 13 19 17 56 17 46 0 49 -2 46 -22z m125 2 c-3 -13 -14 -20 -28 -20 -12 0
-37 -3 -54 -6 -28 -6 -31 -4 -31 20 0 25 2 26 59 26 54 0 59 -2 54 -20z m79
11 c-8 -4 -13 -12 -12 -17 1 -5 -3 -10 -9 -12 -6 -2 -11 6 -11 17 0 15 6 21
23 21 16 0 18 -3 9 -9z m264 -11 c0 -17 -7 -20 -53 -20 -46 0 -53 3 -53 20 0
17 7 20 53 20 46 0 53 -3 53 -20z m146 12 c33 -13 2 -30 -62 -33 -61 -4 -65
-3 -68 19 -3 21 0 22 55 21 32 0 66 -3 75 -7z m105 -17 c0 -8 -15 -15 -34 -17
-36 -4 -48 4 -40 26 7 17 74 9 74 -9z m3078 5 c-26 -7 -27 -8 -6 -9 19 -1 21
-4 12 -15 -9 -11 -9 -15 1 -19 8 -3 5 -6 -7 -7 l-20 -1 20 -9 20 -9 -20 -1
c-17 -2 -16 -3 5 -10 18 -6 6 -8 -40 -8 -50 0 -58 2 -35 8 17 4 23 8 15 9 -13
1 -13 2 0 11 12 8 10 10 -10 10 -20 0 -22 2 -10 10 10 6 11 10 3 10 -20 0 -15
20 5 21 11 1 9 4 -8 9 -18 6 -6 8 40 8 50 0 58 -2 35 -8z m83 3 c-10 -2 -26
-2 -35 0 -10 3 -2 5 17 5 19 0 27 -2 18 -5z m398 -15 c0 -13 -5 -26 -11 -30
-21 -16 -33 -7 -31 22 1 24 5 30 22 30 16 0 21 -6 20 -22z m-393 -4 c-7 -3 -9
-12 -6 -20 3 -8 -1 -14 -8 -14 -11 0 -11 -3 1 -10 12 -8 11 -10 -6 -10 -16 0
-20 6 -20 30 0 26 3 30 25 29 14 0 21 -3 14 -5z m-3893 -49 c0 -23 -3 -25 -50
-25 -47 0 -50 2 -50 25 0 23 3 25 50 25 47 0 50 -2 50 -25z m108 19 c13 -4 22
-14 22 -25 0 -16 -8 -19 -59 -19 -57 0 -58 1 -53 25 3 20 10 25 36 25 17 0 41
-3 54 -6z m96 0 c24 -9 20 -44 -4 -44 -15 0 -20 7 -20 25 0 27 1 28 24 19z
m276 -19 c0 -24 -3 -25 -55 -25 -52 0 -55 1 -55 25 0 24 3 25 55 25 52 0 55
-1 55 -25z m132 0 c5 -25 4 -25 -58 -25 -62 0 -64 1 -64 25 0 24 3 25 59 25
55 0 59 -2 63 -25z m90 19 c14 -13 -6 -44 -28 -44 -19 0 -24 5 -24 25 0 20 5
25 23 25 13 0 26 -3 29 -6z m293 -24 c-18 -7 -16 -8 10 -12 17 -3 3 -5 -30 -5
-33 -1 -51 2 -41 4 15 4 16 7 5 14 -9 6 1 9 31 8 33 0 40 -3 25 -9z m3288 3
c-7 -2 -21 -2 -30 0 -10 3 -4 5 12 5 17 0 24 -2 18 -5z m-385 -20 c-10 -2 -28
-2 -40 0 -13 2 -5 4 17 4 22 1 32 -1 23 -4z m383 -7 c-9 -11 -9 -15 1 -18 8
-3 5 -9 -10 -17 -22 -11 -28 -6 -23 22 0 4 -4 7 -10 7 -5 0 -7 5 -4 10 3 6 18
10 32 10 21 0 23 -3 14 -14z m-4185 -16 c28 0 31 -3 26 -25 -4 -23 -9 -25 -58
-25 -50 0 -54 2 -54 23 0 30 10 39 35 33 11 -3 34 -6 51 -6z m911 -5 c0 -17
-62 -22 -72 -6 -5 8 7 12 61 20 6 0 11 -6 11 -14z m2856 8 c-29 -2 -77 -2
-105 0 -29 2 -6 3 52 3 58 0 81 -1 53 -3z m-3863 -28 c0 -22 -4 -25 -32 -24
-49 1 -73 12 -74 32 -2 14 7 17 52 17 51 0 54 -1 54 -25z m215 0 c0 -18 -5
-25 -20 -25 -15 0 -20 7 -20 25 0 18 5 25 20 25 15 0 20 -7 20 -25z m263 -2
c3 -22 0 -23 -55 -23 -39 0 -53 3 -44 9 12 8 13 12 1 26 -12 15 -8 16 41 13
47 -3 54 -6 57 -25z m101 21 c17 -4 31 -12 31 -19 0 -8 6 -16 13 -18 6 -3 -21
-6 -60 -6 -64 -1 -73 1 -73 17 0 33 22 39 89 26z m126 -3 c3 -5 0 -13 -7 -17
-9 -6 -5 -10 12 -15 21 -6 18 -7 -15 -8 -36 -1 -41 2 -43 24 -1 20 3 25 23 25
13 0 26 -4 30 -9z m3101 -8 c16 -6 16 -7 -2 -14 -12 -5 0 -8 36 -8 40 -1 51
-4 40 -11 -13 -9 -13 -11 0 -20 12 -7 8 -10 -15 -9 -16 0 -24 3 -17 6 32 13 5
23 -65 24 -57 1 -70 3 -48 9 17 4 24 8 18 9 -7 0 -13 6 -13 11 0 11 40 13 66
3z m74 -3 c0 -5 -4 -10 -10 -10 -5 0 -10 5 -10 10 0 6 5 10 10 10 6 0 10 -4
10 -10z m310 -10 c0 -5 26 -11 58 -11 31 -1 47 -4 35 -6 -27 -5 -30 -20 -5
-26 13 -4 11 -5 -5 -6 -14 -1 -23 5 -23 14 0 11 -11 15 -42 14 l-43 -1 30 -13
c30 -14 30 -14 -25 -14 -47 0 -52 1 -35 11 19 12 19 12 -5 19 l-25 7 25 1 c20
1 22 3 10 11 -11 7 -7 10 18 10 17 0 32 -4 32 -10z m-3193 -6 c13 -4 20 -10
17 -15 -8 -13 -38 -11 -70 6 l-29 15 30 0 c17 0 40 -3 52 -6z m2813 -34 c20
-6 14 -8 -27 -9 -28 -1 -55 4 -58 9 -7 12 48 12 85 0z m-2807 -7 c-13 -2 -35
-2 -50 0 -16 2 -5 4 22 4 28 0 40 -2 28 -4z"/>
<path d="M3213 2082 c-2 -20 -9 -41 -17 -46 -11 -7 11 -22 83 -57 130 -62 203
-109 277 -180 l61 -59 43 52 c24 29 49 60 57 69 10 12 10 16 1 16 -7 0 -42 17
-78 38 -209 120 -332 181 -400 198 -23 6 -25 3 -27 -31z"/>
<path d="M2897 2001 c-101 -21 -135 -104 -73 -178 29 -34 103 -71 115 -57 5 5
23 47 41 94 17 47 38 95 46 107 12 19 12 22 -4 27 -38 11 -89 14 -125 7z"/>
<path d="M3019 1598 c0 -2 -2 -19 -4 -38 -1 -19 -9 -36 -16 -39 -7 -2 23 -21
67 -41 188 -88 310 -236 263 -322 -8 -13 -39 -47 -70 -75 -174 -156 -483 -116
-749 98 -37 29 -53 38 -36 21 30 -32 30 -70 0 -58 -8 3 -13 2 -10 -3 3 -5 -5
-16 -19 -25 -23 -15 -27 -15 -50 0 -14 9 -25 14 -25 11 0 -3 51 -39 113 -80
127 -86 276 -160 355 -176 161 -33 440 16 548 98 145 109 145 264 0 405 -75
73 -145 121 -263 180 -84 43 -102 50 -104 44z m121 -608 c-8 -5 -22 -9 -30 -9
-10 0 -8 3 5 9 27 12 43 12 25 0z"/>
<path d="M4165 3183 c5 -78 2 -72 43 -66 20 3 40 11 44 16 3 6 8 -3 11 -19 2
-16 5 -1 6 34 l1 62 -54 0 c-52 0 -53 -1 -51 -27z"/>
<path d="M2327 3102 c-23 -25 -21 -45 7 -71 20 -19 28 -21 45 -12 30 16 38 57
16 81 -23 25 -47 25 -68 2z"/>
<path d="M3378 3109 c-21 -12 -24 -59 -6 -77 7 -7 21 -12 33 -12 43 0 61 53
29 84 -18 18 -32 20 -56 5z"/>
<path d="M4855 3060 c-5 -8 -21 -10 -45 -6 l-38 6 3 -36 c4 -42 12 -54 21 -30
3 9 15 16 26 16 10 0 17 4 13 9 -7 13 31 24 47 15 8 -5 8 -1 -2 12 -8 10 -15
20 -16 22 -1 2 -5 -2 -9 -8z"/>
<path d="M4725 3050 c-3 -5 -1 -10 4 -10 6 0 11 5 11 10 0 6 -2 10 -4 10 -3 0
-8 -4 -11 -10z"/>
<path d="M2791 2964 c0 -11 3 -14 6 -6 3 7 2 16 -1 19 -3 4 -6 -2 -5 -13z"/>
<path d="M615 2880 c-4 -6 -3 -16 3 -22 6 -6 12 -6 17 2 4 6 3 16 -3 22 -6 6
-12 6 -17 -2z"/>
<path d="M945 2880 c-3 -6 1 -7 9 -4 18 7 21 14 7 14 -6 0 -13 -4 -16 -10z"/>
<path d="M661 2868 c-1 -22 18 -33 32 -19 9 9 8 11 -5 6 -11 -4 -18 0 -21 12
-4 15 -5 16 -6 1z"/>
<path d="M375 2850 c-11 -17 5 -32 21 -19 7 6 11 15 8 20 -7 12 -21 11 -29 -1z
m25 -4 c0 -3 -4 -8 -10 -11 -5 -3 -10 -1 -10 4 0 6 5 11 10 11 6 0 10 -2 10
-4z"/>
<path d="M943 2840 c4 -17 57 -27 57 -12 0 6 -9 8 -21 5 -12 -4 -25 0 -31 8
-8 12 -9 11 -5 -1z"/>
<path d="M487 2824 c-8 -8 1 -24 14 -24 5 0 9 7 9 15 0 15 -12 20 -23 9z"/>
<path d="M722 2789 c2 -7 10 -15 17 -17 8 -3 12 1 9 9 -2 7 -10 15 -17 17 -8
3 -12 -1 -9 -9z"/>
<path d="M1176 2791 c-8 -13 26 -31 59 -31 20 0 26 4 23 18 -4 19 -72 30 -82
13z"/>
<path d="M1025 2781 c-3 -5 -1 -12 5 -16 12 -7 30 2 30 16 0 12 -27 12 -35 0z"/>
<path d="M434 2759 c-7 -12 15 -31 28 -23 4 3 8 12 8 20 0 17 -26 19 -36 3z"/>
<path d="M440 2614 c0 -8 5 -12 10 -9 6 3 10 10 10 16 0 5 -4 9 -10 9 -5 0
-10 -7 -10 -16z"/>
<path d="M680 2605 c-10 -12 -10 -18 0 -30 7 -8 19 -15 27 -15 19 0 28 29 14
43 -9 9 -11 8 -6 -4 7 -19 -9 -34 -25 -24 -7 4 -7 13 0 26 13 23 7 25 -10 4z"/>
<path d="M1152 2315 c-2 -290 10 -1101 16 -1070 11 55 70 222 113 317 27 59
49 110 49 113 0 3 20 46 45 96 29 58 45 104 45 128 0 20 -4 32 -8 26 -4 -5
-20 -10 -37 -10 -21 -1 -33 -8 -42 -25 -12 -23 -13 -20 -13 33 0 42 -4 57 -14
57 -8 0 -16 6 -18 12 -3 7 -8 -6 -11 -29 -7 -40 -8 -41 -35 -34 -15 4 -37 7
-49 6 -13 -1 -24 -1 -25 -1 -1 1 -4 145 -8 321 l-6 320 -2 -260z"/>
<path d="M4920 2474 c-9 -10 -10 -18 -2 -26 12 -12 32 -2 32 17 0 21 -16 26
-30 9z m20 -10 c0 -8 -5 -12 -10 -9 -6 4 -8 11 -5 16 9 14 15 11 15 -7z"/>
<path d="M4444 2335 c0 -66 1 -92 3 -57 2 34 2 88 0 120 -2 31 -3 3 -3 -63z"/>
<path d="M987 2413 c-4 -3 -6 -63 -5 -132 l2 -126 6 95 c3 52 7 78 8 57 2 -35
3 -37 23 -26 12 6 30 9 40 6 14 -4 19 0 20 16 1 17 3 15 9 -8 6 -22 8 -9 9 48
l1 77 -53 0 c-30 0 -57 -3 -60 -7z"/>
<path d="M397 2384 c-16 -16 -7 -44 14 -44 15 0 20 5 17 22 -3 22 -19 33 -31
22z m19 -31 c-10 -10 -19 5 -10 18 6 11 8 11 12 0 2 -7 1 -15 -2 -18z"/>
<path d="M1482 2193 c1 -124 4 -168 8 -128 4 33 7 49 8 35 2 -20 12 -8 53 60
69 114 104 191 83 183 -10 -4 -17 2 -21 16 -5 19 -12 21 -69 21 l-64 0 2 -187z"/>
<path d="M4910 2366 c0 -23 20 -30 37 -13 10 10 12 17 4 22 -6 3 -10 1 -9 -6
2 -6 -3 -14 -11 -17 -10 -3 -12 0 -8 12 4 9 2 16 -3 16 -6 0 -10 -6 -10 -14z"/>
<path d="M523 2344 c-3 -8 1 -22 9 -30 13 -13 16 -13 27 0 7 9 11 23 7 31 -7
20 -35 19 -43 -1z m35 -11 c-4 -22 -22 -20 -26 1 -2 10 3 16 13 16 10 0 15 -7
13 -17z"/>
<path d="M461 2268 c0 -21 1 -21 8 -3 8 19 8 19 20 0 12 -20 12 -20 9 0 -5 30
-38 33 -37 3z"/>
<path d="M4573 2235 c0 -22 2 -30 4 -17 2 12 2 30 0 40 -3 9 -5 -1 -4 -23z"/>
<path d="M700 2120 c0 -5 5 -10 10 -10 6 0 10 5 10 10 0 6 -4 10 -10 10 -5 0
-10 -4 -10 -10z"/>
<path d="M5177 2102 c-20 -22 -21 -45 -6 -74 8 -14 8 -23 0 -31 -19 -19 -12
-55 16 -76 29 -24 55 -21 88 10 23 20 62 16 81 -9 15 -20 48 -11 52 14 2 11
-4 27 -13 34 -8 7 -15 22 -15 35 0 30 -30 55 -68 55 -20 0 -32 5 -32 13 0 41
-74 61 -103 29z m83 -7 c8 -9 10 -29 7 -53 -6 -36 -5 -36 10 -14 17 24 61 30
81 10 7 -7 12 -24 12 -40 0 -35 -31 -54 -62 -37 -17 9 -23 9 -26 0 -15 -46
-85 -57 -104 -16 -9 20 -8 31 2 50 10 20 11 28 2 37 -15 15 -15 51 0 66 17 17
63 15 78 -3z m136 -164 c-8 -13 -36 -15 -36 -3 0 4 5 13 12 20 14 14 34 0 24
-17z"/>
<path d="M600 2065 c0 -9 5 -15 11 -13 6 2 11 8 11 13 0 5 -5 11 -11 13 -6 2
-11 -4 -11 -13z"/>
<path d="M4751 2044 c0 -11 3 -14 6 -6 3 7 2 16 -1 19 -3 4 -6 -2 -5 -13z"/>
<path d="M4751 1940 c-1 -41 -6 -84 -10 -94 -7 -19 -8 -19 -13 2 -5 18 -13 22
-42 22 -27 0 -36 -4 -38 -17 -1 -10 -4 14 -8 52 -4 39 -7 -131 -8 -377 -2
-375 0 -448 12 -448 7 0 19 7 26 15 10 12 36 15 119 15 105 0 140 -8 127 -28
-3 -6 4 -13 16 -15 13 -2 -12 -5 -54 -6 -72 -1 -77 0 -81 22 -4 20 -4 20 -6
-3 -1 -23 -4 -25 -40 -22 -21 2 -42 -1 -45 -7 -5 -7 8 -11 38 -11 25 0 46 -4
46 -10 0 -5 5 -10 11 -10 5 0 7 5 4 10 -4 6 18 10 58 10 54 0 64 -3 64 -17 0
-28 -16 -32 -116 -32 -107 0 -122 4 -114 27 3 13 0 11 -14 -4 -10 -12 -26 -24
-36 -27 -17 -6 -18 -24 -17 -229 1 -123 2 -322 2 -443 1 -310 -3 -279 37 -283
30 -3 33 -1 28 17 -5 19 -1 21 44 21 44 0 49 -2 49 -22 0 -18 2 -20 9 -8 6 8
7 18 5 22 -3 4 24 8 59 8 56 0 65 -3 63 -17 0 -12 7 -19 22 -21 17 -3 22 2 22
17 0 15 6 21 24 21 19 0 23 -4 19 -19 -5 -21 25 -31 76 -23 36 5 35 2 31 175
-1 73 1 107 9 107 6 0 11 6 11 14 0 8 4 16 10 18 13 4 23 258 10 258 -6 0 -10
-9 -10 -20 0 -11 -7 -20 -15 -20 -15 0 -17 49 -17 478 0 44 -4 62 -13 62 -10
0 -14 23 -17 86 -2 47 -1 87 2 89 3 2 3 65 0 141 -4 114 -8 139 -20 140 -9 0
-10 -1 -2 -3 6 -3 12 -8 12 -11 0 -8 -94 -7 -107 1 -6 4 -8 -75 -5 -213 l5
-220 -33 0 -33 0 5 323 c4 229 3 312 -5 287 -8 -29 -11 -32 -16 -15 -4 15 -16
21 -43 22 -36 2 -38 1 -39 -30 -1 -59 -7 -13 -14 106 -5 88 -10 117 -20 117
-9 0 -15 16 -18 48 -3 36 -4 30 -6 -28z m282 -860 c4 -17 0 -20 -29 -20 -27 0
-34 4 -34 20 0 15 7 20 29 20 20 0 30 -6 34 -20z m-8 -50 c-11 -5 -14 -9 -7
-9 26 -2 10 -26 -18 -27 -25 -1 -30 3 -30 22 0 21 5 24 38 23 30 0 33 -2 17
-9z m-235 -75 c0 -22 -4 -25 -37 -25 -51 0 -63 10 -54 45 0 3 21 5 46 5 41 0
45 -2 45 -25z m130 17 c8 -4 16 -15 16 -24 2 -16 -8 -18 -67 -18 -67 0 -69 1
-69 25 0 24 3 25 53 24 28 0 59 -3 67 -7z m105 2 c13 -5 14 -9 3 -15 -11 -7
-10 -11 2 -19 11 -7 6 -10 -22 -10 -34 0 -38 3 -38 25 0 26 19 32 55 19z
m-251 -60 c9 -3 16 -15 16 -25 0 -16 -8 -19 -48 -19 -40 0 -48 3 -49 19 -2 25
44 39 81 25z m156 -14 c-9 -6 -8 -10 6 -19 15 -8 7 -10 -43 -11 -34 0 -68 -3
-77 -6 -12 -5 -16 0 -16 18 0 14 2 27 4 29 2 2 35 2 72 1 38 -2 62 -7 54 -12z
m96 -1 c-15 -9 -16 -13 -5 -20 10 -6 4 -9 -18 -9 -26 0 -33 4 -33 20 0 16 7
20 38 20 31 -1 34 -2 18 -11z m-238 -71 c-2 -15 -10 -23 -23 -22 -65 3 -88 6
-77 11 10 4 10 8 1 19 -10 12 -2 14 45 14 54 0 57 -1 54 -22z m143 13 c-7 -5
-11 -13 -7 -19 9 -14 -18 -22 -75 -22 -46 0 -49 2 -49 25 0 24 2 25 73 25 45
0 67 -4 58 -9z m109 5 c0 -2 -16 -6 -35 -8 -19 -2 -35 0 -35 4 0 4 16 8 35 8
19 0 35 -2 35 -4z m-20 -31 c11 -13 8 -15 -19 -15 -31 0 -42 14 -18 23 20 9
24 8 37 -8z m-230 -51 c0 -25 -2 -26 -37 -20 -21 3 -46 6 -55 6 -11 0 -16 7
-15 20 1 17 8 20 54 20 51 0 53 -1 53 -26z m133 7 c6 -24 -10 -31 -74 -31 -46
0 -49 2 -49 25 0 24 3 25 59 25 50 0 59 -3 64 -19z m93 2 c-2 -10 -13 -19 -24
-21 -17 -3 -22 2 -22 17 0 16 6 21 24 21 17 0 24 -5 22 -17z m-1 -43 c-3 -5
-15 -10 -26 -10 -10 0 -19 5 -19 10 0 6 12 10 26 10 14 0 23 -4 19 -10z m-227
-30 c-1 -26 -5 -30 -29 -30 -15 0 -39 5 -53 11 -21 10 -23 15 -15 30 7 14 21
19 54 19 42 0 44 -1 43 -30z m127 20 c-4 -6 -1 -17 5 -25 11 -13 6 -15 -33
-15 -25 0 -49 -4 -52 -10 -4 -6 14 -10 47 -10 33 0 48 -3 39 -9 -11 -7 -11
-10 0 -17 9 -6 -8 -12 -51 -20 -65 -12 -65 -12 -18 -13 58 -1 85 -10 67 -22
-10 -6 -7 -10 11 -17 22 -8 18 -10 -30 -16 -103 -12 -100 -15 -100 91 l0 93
61 0 c39 0 58 -4 54 -10z m107 -16 c-6 -3 -10 -10 -6 -15 3 -5 -6 -9 -20 -9
-39 0 -32 25 7 27 17 1 26 -1 19 -3z m-236 -66 c-3 -20 -9 -23 -47 -23 -24 0
-44 5 -44 10 0 6 -4 16 -8 23 -6 9 5 12 47 12 52 0 56 -1 52 -22z m235 9 c-6
-8 -8 -17 -4 -20 3 -4 -6 -7 -20 -7 -20 0 -27 5 -27 20 0 16 7 20 31 20 25 0
29 -3 20 -13z m-236 -75 c2 -21 -2 -23 -50 -21 -51 2 -57 8 -46 47 1 2 22 2
48 0 40 -3 47 -6 48 -26z m235 8 l25 -8 -25 -2 c-23 -1 -23 -2 -5 -10 17 -7
15 -9 -11 -9 -24 -1 -33 4 -37 19 -6 22 8 24 53 10z m-233 -70 c-1 -17 -8 -20
-54 -20 -46 0 -52 2 -50 20 1 17 8 20 54 20 46 0 52 -2 50 -20z m143 13 c-1
-22 -20 -31 -73 -34 -54 -4 -57 -3 -57 19 0 21 4 22 65 22 36 0 65 -3 65 -7z
m95 -2 c19 -8 19 -8 -2 -19 -33 -18 -53 -15 -53 8 0 21 19 25 55 11z m-243
-76 c-5 -28 -6 -28 -56 -21 -27 4 -45 12 -43 19 4 21 21 27 62 25 34 -3 39 -6
37 -23z m145 8 c0 -26 -16 -33 -74 -33 -50 0 -53 1 -53 25 0 24 2 25 63 25 54
0 64 -3 64 -17z m88 7 c-19 -8 -19 -9 -1 -9 15 -1 16 -4 6 -16 -20 -24 -47
-19 -47 10 0 21 4 25 31 24 26 0 28 -2 11 -9z m-229 -75 c-1 -23 -5 -25 -52
-25 -49 0 -51 1 -46 25 4 23 9 25 52 25 45 0 48 -2 46 -25z m137 4 c6 -24 0
-26 -70 -32 -52 -4 -53 -3 -53 25 0 28 1 28 59 28 51 0 59 -3 64 -21z m102 1
c18 -20 17 -20 -18 -20 -47 0 -52 33 -6 39 3 1 14 -8 24 -19z m-259 -46 c14
-4 22 -14 22 -30 0 -20 -5 -24 -32 -24 -17 0 -41 3 -54 6 -18 5 -20 9 -11 20
9 11 8 14 -2 15 -17 1 20 17 41 18 8 0 25 -2 36 -5z m154 -15 c-11 -8 -12 -12
-2 -16 27 -11 -2 -23 -54 -23 -30 0 -54 -4 -54 -10 0 -6 28 -10 63 -10 44 0
58 -3 47 -10 -13 -9 -13 -10 0 -10 13 0 13 -1 0 -10 -8 -5 -39 -10 -67 -10
l-53 0 0 55 0 55 68 0 c50 0 63 -3 52 -11z m85 2 c-3 -5 -1 -12 5 -16 15 -9 2
-25 -22 -25 -13 0 -18 5 -15 14 3 7 0 19 -6 25 -8 8 -4 11 17 11 15 0 25 -4
21 -9z m-217 -78 c3 -20 -1 -23 -31 -23 -45 0 -67 9 -67 25 0 18 18 24 60 22
28 -2 36 -7 38 -24z m227 2 c0 -13 -8 -21 -22 -23 -19 -3 -23 1 -23 23 0 22 4
26 23 23 14 -2 22 -10 22 -23z m-227 -67 c3 -27 2 -28 -46 -28 -48 0 -49 0
-44 31 4 28 6 30 46 27 36 -3 41 -6 44 -30z m109 26 c12 -3 23 -16 26 -30 4
-23 2 -24 -59 -24 l-64 0 0 30 c0 28 2 30 38 30 20 0 47 -3 59 -6z m117 -3
c13 -5 16 -10 8 -15 -6 -3 -9 -13 -5 -21 4 -11 -2 -15 -21 -15 -22 0 -26 4
-26 30 0 31 9 35 44 21z m7 -85 c-10 -11 -8 -17 6 -25 15 -9 12 -10 -19 -11
-34 0 -38 3 -38 25 0 21 5 25 31 25 26 0 29 -2 20 -14z m-231 -16 c0 -18 -6
-20 -62 -19 -35 1 -53 4 -40 6 24 5 29 18 10 26 -7 3 11 6 40 6 46 1 52 -1 52
-19z m120 6 c0 -8 10 -17 23 -19 12 -2 -13 -5 -55 -6 -72 -1 -78 1 -78 19 0
18 7 20 55 20 41 0 55 -4 55 -14z"/>
<path d="M242 1978 c-24 -30 -13 -88 18 -88 25 0 47 64 30 85 -15 18 -34 19
-48 3z m35 -9 c8 -8 8 -19 0 -40 -13 -33 -30 -33 -35 0 -7 43 12 63 35 40z"/>
<path d="M1431 1938 c0 -32 1 -58 4 -58 2 0 14 19 25 42 21 44 27 66 9 36 -15
-26 -27 -22 -32 10 -2 15 -5 1 -6 -30z"/>
<path d="M4810 1938 c0 -5 18 -8 40 -8 22 0 40 2 40 4 0 2 -18 6 -40 8 -22 2
-40 0 -40 -4z"/>
<path d="M4912 1875 c0 -16 2 -22 5 -12 2 9 2 23 0 30 -3 6 -5 -1 -5 -18z"/>
<path d="M524 1849 c-10 -17 13 -36 27 -22 12 12 4 33 -11 33 -5 0 -12 -5 -16
-11z"/>
<path d="M374 1756 c-9 -24 4 -48 23 -44 12 2 18 12 18 28 0 29 -32 41 -41 16z
m36 -22 c0 -8 -7 -14 -15 -14 -15 0 -21 21 -9 33 10 9 24 -2 24 -19z"/>
<path d="M983 1655 c0 -44 2 -61 4 -37 2 23 2 59 0 80 -2 20 -4 1 -4 -43z"/>
<path d="M481 1641 c-15 -27 -14 -69 3 -125 11 -36 12 -53 3 -76 -9 -23 -8
-33 1 -42 9 -9 18 -5 41 21 29 32 29 35 27 134 l-3 102 -31 3 c-22 2 -34 -2
-41 -17z m69 -5 c0 -8 -4 -17 -8 -20 -5 -3 -7 -18 -4 -35 3 -22 -1 -32 -18
-41 -12 -6 -24 -9 -27 -7 -12 13 -15 88 -3 102 16 19 60 20 60 1z"/>
<path d="M5240 1405 c-19 -23 -8 -50 20 -50 16 0 26 6 28 18 4 18 -14 47 -28
47 -4 0 -13 -7 -20 -15z m38 -22 c-2 -10 -10 -18 -18 -18 -8 0 -16 8 -18 18
-2 12 3 17 18 17 15 0 20 -5 18 -17z"/>
<path d="M380 1355 c0 -9 5 -15 11 -13 6 2 11 8 11 13 0 5 -5 11 -11 13 -6 2
-11 -4 -11 -13z"/>
<path d="M320 1305 c0 -8 7 -15 15 -15 8 0 15 7 15 15 0 8 -7 15 -15 15 -8 0
-15 -7 -15 -15z"/>
<path d="M204 1118 c-5 -8 -2 -9 9 -5 10 3 17 2 17 -2 0 -5 -6 -12 -12 -14 -8
-3 -6 -6 5 -6 11 -1 17 6 17 19 0 22 -24 27 -36 8z"/>
<path d="M1153 1030 c0 -36 2 -50 4 -32 2 17 2 47 0 65 -2 17 -4 3 -4 -33z"/>
<path d="M210 1030 c0 -15 5 -20 18 -18 9 2 17 10 17 18 0 8 -8 16 -17 18 -13
2 -18 -3 -18 -18z m30 6 c0 -3 -4 -8 -10 -11 -5 -3 -10 -1 -10 4 0 6 5 11 10
11 6 0 10 -2 10 -4z"/>
<path d="M5415 957 l-30 -11 25 -7 c21 -6 18 -7 -15 -8 -29 0 -36 2 -25 9 11
7 7 10 -17 10 -26 0 -30 -3 -26 -20 3 -13 0 -20 -8 -21 -8 0 -5 -4 6 -9 11 -5
14 -9 8 -9 -19 -1 -16 -19 5 -24 16 -4 16 -5 0 -6 -20 -1 -25 -21 -5 -22 6 0
3 -4 -8 -9 -11 -5 -15 -9 -8 -9 7 -1 10 -8 7 -16 -4 -9 0 -15 7 -16 8 0 5 -4
-6 -9 -11 -5 -15 -9 -8 -9 6 -1 10 -12 8 -26 -1 -14 3 -25 9 -26 6 0 2 -4 -9
-9 -11 -5 -14 -9 -7 -9 8 -1 11 -10 8 -26 -3 -15 0 -25 7 -25 8 0 8 -3 2 -8
-14 -10 -14 -125 -1 -134 7 -5 3 -8 -9 -8 -17 0 -17 -2 -5 -10 13 -9 13 -11 0
-20 -12 -8 -12 -10 5 -10 15 0 17 -2 6 -9 -8 -5 -11 -16 -8 -25 4 -9 1 -16 -5
-16 -7 0 -3 -7 8 -15 19 -14 19 -14 -1 -15 -19 -1 -19 -1 -1 -11 15 -9 16 -13
5 -20 -12 -8 -12 -11 1 -19 12 -8 12 -10 1 -10 -10 0 -11 -3 -2 -14 9 -11 9
-15 -1 -19 -10 -4 -10 -7 1 -15 11 -8 11 -10 0 -15 -12 -4 -11 -7 1 -16 12 -8
12 -11 1 -11 -10 0 -11 -3 -2 -14 9 -11 9 -15 -1 -19 -7 -3 -4 -6 7 -6 17 -1
17 -3 5 -11 -13 -9 -13 -10 0 -11 10 0 8 -3 -5 -9 -16 -7 -14 -9 15 -9 26 -1
31 2 20 9 -10 6 -11 10 -2 10 6 0 11 6 10 12 -2 7 8 14 22 15 22 2 23 2 5 -6
-19 -9 -18 -10 5 -11 25 -2 25 -2 2 -8 -13 -4 -23 -12 -22 -17 0 -6 -17 -12
-37 -14 -31 -3 -34 -5 -18 -11 14 -6 5 -9 -32 -9 -43 -1 -51 2 -47 14 4 10 0
15 -12 16 -11 1 -6 5 11 9 23 6 25 8 8 9 -39 2 -36 21 4 23 37 1 37 1 6 5 -40
5 -44 23 -5 24 l27 1 -30 8 -30 7 30 9 30 8 -35 6 -35 6 35 11 c33 11 33 11 8
12 -39 1 -35 21 5 22 31 2 30 2 -8 9 l-40 6 30 8 c48 12 51 14 25 15 -14 1
-32 6 -40 11 -11 7 -5 10 25 11 41 1 40 2 -10 15 l-30 8 35 6 35 6 -35 11 -35
11 34 1 c40 1 36 10 -11 21 l-33 8 40 1 40 2 -30 14 -30 13 30 3 30 2 -35 7
-35 7 35 9 35 9 -40 6 -40 6 40 2 c42 1 39 16 -5 24 -24 4 -24 4 3 6 32 1 27
20 -6 22 -14 1 -9 4 13 9 31 6 32 8 8 9 -40 2 -45 21 -6 22 l33 2 -35 7 c-26
5 -29 8 -11 9 19 1 21 4 12 15 -6 7 -9 21 -5 30 4 11 1 16 -11 16 -27 0 -6 20
23 21 26 0 25 1 -8 13 l-35 13 35 11 35 10 -35 2 c-29 1 -31 3 -15 10 19 8 19
8 -5 18 -23 10 -21 11 20 13 35 2 38 3 15 6 -43 6 -56 23 -19 24 l29 1 -30 8
c-27 7 -28 8 -5 9 27 1 18 16 -15 24 -11 3 -3 6 20 7 l40 2 -35 15 c-31 14
-33 16 -15 23 18 7 17 8 -8 15 -15 4 -30 5 -33 2 -4 -3 -7 -572 -4 -879 0 -45
3 -58 15 -58 8 0 15 7 15 15 0 12 13 15 55 15 42 0 55 -3 55 -15 0 -19 19 -19
26 0 7 18 55 20 51 2 -1 -7 11 -13 29 -15 29 -3 32 0 37 30 3 18 4 222 3 453
-2 303 -6 427 -15 443 -13 25 -14 25 -56 9z m-2 -44 c-7 -2 -21 -2 -30 0 -10
3 -4 5 12 5 17 0 24 -2 18 -5z m-7 -28 c-3 -10 1 -15 12 -16 15 -1 15 -2 -1
-6 -14 -4 -16 -8 -6 -19 9 -11 7 -14 -15 -14 -17 0 -25 4 -20 11 3 6 0 15 -7
20 -11 7 -10 9 5 9 15 0 16 3 6 15 -10 13 -9 15 10 15 16 0 20 -4 16 -15z m12
-72 c-10 -2 -26 -2 -35 0 -10 3 -2 5 17 5 19 0 27 -2 18 -5z m-3 -38 c0 -14
-4 -25 -10 -25 -5 0 -3 -5 5 -10 12 -8 10 -10 -10 -10 -22 0 -25 4 -23 32 1
18 2 34 2 36 1 1 9 2 19 2 12 0 17 -8 17 -25z m-5 -85 c0 -22 -5 -30 -17 -30
-13 0 -18 8 -18 30 0 22 5 30 18 30 12 0 17 -8 17 -30z m3 -47 c-7 -2 -21 -2
-30 0 -10 3 -4 5 12 5 17 0 24 -2 18 -5z m5 -20 c-10 -2 -26 -2 -35 0 -10 3
-2 5 17 5 19 0 27 -2 18 -5z m-8 -23 c-13 -9 -13 -11 0 -20 12 -8 11 -10 -8
-10 -13 0 -20 4 -17 10 3 6 1 10 -5 10 -6 0 -8 5 -5 10 3 6 16 10 28 10 18 0
19 -2 7 -10z m-10 -52 l-25 -11 30 -7 30 -8 -32 -1 c-26 -1 -31 3 -30 19 1 15
8 20 27 19 l25 0 -25 -11z m8 -45 c-10 -2 -26 -2 -35 0 -10 3 -2 5 17 5 19 0
27 -2 18 -5z m-3 -23 c3 -5 -3 -10 -14 -10 -12 0 -21 5 -21 10 0 6 6 10 14 10
8 0 18 -4 21 -10z m13 -27 c-10 -2 -28 -2 -40 0 -13 2 -5 4 17 4 22 1 32 -1
23 -4z m-12 -20 c-15 -4 -16 -7 -5 -14 11 -7 9 -9 -7 -9 -12 0 -21 6 -21 15 0
10 9 15 26 14 20 -1 21 -3 7 -6z m4 -43 c0 -5 -9 -10 -20 -10 -11 0 -20 5 -20
10 0 6 9 10 20 10 11 0 20 -4 20 -10z m0 -30 c0 -5 -2 -10 -4 -10 -2 0 -11 -2
-19 -5 -8 -4 -14 0 -14 10 0 8 9 15 19 15 10 0 18 -4 18 -10z m8 -37 c-10 -2
-28 -2 -40 0 -13 2 -5 4 17 4 22 1 32 -1 23 -4z m-7 -20 c-11 -5 -11 -7 0 -14
10 -6 7 -9 -12 -9 -16 0 -26 5 -26 15 0 10 10 15 26 14 14 0 20 -3 12 -6z m1
-40 c-10 -4 -10 -8 -1 -19 9 -12 6 -14 -22 -14 -29 1 -31 2 -15 11 15 9 16 13
5 20 -10 6 -5 8 16 8 17 0 24 -3 17 -6z m6 -50 c-10 -2 -28 -2 -40 0 -13 2 -5
4 17 4 22 1 32 -1 23 -4z m-25 -90 c-7 -2 -19 -2 -25 0 -7 3 -2 5 12 5 14 0
19 -2 13 -5z m-60 -29 c-3 -9 0 -20 8 -25 9 -5 -10 -9 -51 -8 -55 0 -61 2 -40
11 15 6 20 12 13 15 -28 10 -10 23 32 23 37 0 43 -3 38 -16z m80 -1 c-7 -2
-19 -2 -25 0 -7 3 -2 5 12 5 14 0 19 -2 13 -5z"/>
<path d="M5150 682 c0 -23 4 -42 9 -42 10 0 8 67 -3 77 -3 3 -6 -12 -6 -35z"/>
<path d="M253 643 c9 -2 23 -2 30 0 6 3 -1 5 -18 5 -16 0 -22 -2 -12 -5z"/>
<path d="M4378 523 c12 -2 30 -2 40 0 9 3 -1 5 -23 4 -22 0 -30 -2 -17 -4z"/>
<path d="M3931 336 c9 -8 99 -13 99 -5 0 5 -23 9 -52 9 -28 0 -49 -2 -47 -4z"/>
<path d="M3475 60 c-3 -5 -1 -10 4 -10 6 0 11 5 11 10 0 6 -2 10 -4 10 -3 0
-8 -4 -11 -10z"/>
<path d="M4390 36 c0 -9 30 -14 35 -6 4 6 -3 10 -14 10 -12 0 -21 -2 -21 -4z"/>
</g>
</svg>
